<svg width="24" height="24" viewBox="0 0 24 24" fill="none" xmlns="http://www.w3.org/2000/svg">
<g id="vuesax/outline/bill">
<g id="bill">
<path id="Vector" d="M3.91992 2.75002H4.41992H19.5899H20.0899V3.25002V14.47C20.0899 15.3701 19.6538 16.2255 18.9431 16.7676L18.9396 16.7703L18.9396 16.7703L13.7299 20.67L3.91992 2.75002ZM3.91992 2.75002V3.25002M3.91992 2.75002V3.25002M3.91992 3.25002V14.47C3.91992 15.3701 4.35598 16.2255 5.06668 16.7676L5.06667 16.7676M3.91992 3.25002L5.06667 16.7676M5.06667 16.7676L5.07027 16.7703M5.06667 16.7676L5.07027 16.7703M5.07027 16.7703L10.2799 20.67L5.07027 16.7703ZM9.9799 21.08L9.97953 21.0797L4.77057 17.1805C4.77044 17.1804 4.77032 17.1803 4.7702 17.1802C3.92545 16.5443 3.41992 15.5322 3.41992 14.48V2.26001H20.5799V14.48C20.5799 15.5322 20.0743 16.5444 19.2295 17.1803C19.2294 17.1804 19.2293 17.1804 19.2292 17.1805L14.0203 21.0797L14.0199 21.08C13.4291 21.5231 12.7151 21.75 11.9999 21.75C11.2847 21.75 10.5707 21.5231 9.9799 21.08ZM10.2803 20.6703C11.2979 21.4333 12.7119 21.4333 13.7295 20.6703H10.2803Z" fill="#171515" stroke="#171515"/>
<path id="Vector_2" d="M22 2.75H2C1.86614 2.75 1.75 2.63386 1.75 2.5C1.75 2.36614 1.86614 2.25 2 2.25H22C22.1339 2.25 22.25 2.36614 22.25 2.5C22.25 2.63386 22.1339 2.75 22 2.75Z" fill="#171515" stroke="#171515"/>
<path id="Vector_3" d="M16 8.75H8C7.59 8.75 7.25 8.41 7.25 8C7.25 7.59 7.59 7.25 8 7.25H16C16.41 7.25 16.75 7.59 16.75 8C16.75 8.41 16.41 8.75 16 8.75Z" fill="#171515"/>
<path id="Vector_4" d="M16 13.75H8C7.59 13.75 7.25 13.41 7.25 13C7.25 12.59 7.59 12.25 8 12.25H16C16.41 12.25 16.75 12.59 16.75 13C16.75 13.41 16.41 13.75 16 13.75Z" fill="#171515"/>
</g>
</g>
</svg>
