<svg width="24" height="24" viewBox="0 0 24 24" fill="none" xmlns="http://www.w3.org/2000/svg">
<g id="vuesax/outline/like">
<g id="like">
<path id="Vector" d="M10.4037 20.9264L10.381 20.9038L10.3557 20.8843L7.72165 18.85L8.02965 18.4517L10.7161 20.5315C10.9228 20.7195 11.2181 20.8517 11.4962 20.9377C11.7978 21.0309 12.1451 21.09 12.4801 21.09H16.2801C16.8572 21.09 17.4266 20.8626 17.8751 20.5306C18.3159 20.2044 18.6912 19.7385 18.8305 19.1997L21.2428 11.8732C21.4379 11.3309 21.4287 10.7491 21.0965 10.2887C20.7583 9.81378 20.1844 9.59 19.5801 9.59H15.5801C15.2031 9.59 14.8615 9.43144 14.6276 9.16216L14.627 9.16143C14.3873 8.8865 14.2756 8.5155 14.3345 8.11502L14.8322 4.91951C14.9978 4.10522 14.4664 3.24598 13.7053 2.98805C13.3277 2.85166 12.9297 2.8913 12.61 2.9984C12.2949 3.10398 11.9772 3.30173 11.7881 3.57674L11.7881 3.57672L11.7851 3.58108L7.96352 9.2669L7.55454 8.99315L11.3751 3.30892L11.3755 3.30837C11.8763 2.56104 13.0109 2.19029 13.8726 2.51745L13.8834 2.52152L13.8943 2.5251C14.9044 2.85641 15.556 3.98766 15.3317 5.01315L15.3284 5.02806L15.326 5.04315L14.836 8.19315L14.836 8.19314L14.8351 8.19929C14.8184 8.31643 14.7981 8.60269 15.0138 8.84925L15.0248 8.86178L15.0366 8.87356C15.1833 9.02027 15.3817 9.1 15.5901 9.1H19.5901C20.4308 9.1 21.1176 9.44887 21.5113 10.0079L21.5124 10.0095C21.8964 10.5502 21.9908 11.2849 21.7202 12.0291L21.7175 12.0365L21.7151 12.044L19.3251 19.324L19.3198 19.3401L19.3156 19.3564C19.0058 20.5707 17.6766 21.6 16.2801 21.6H12.4801C12.2411 21.6 11.8403 21.5625 11.4297 21.4512C11.0123 21.338 10.6406 21.1634 10.4037 20.9264Z" fill="#171515" stroke="#171515"/>
<path id="Vector_2" d="M5.37988 21H4.37988C2.52988 21 1.62988 20.13 1.62988 18.35V8.55C1.62988 6.77 2.52988 5.9 4.37988 5.9H5.37988C7.22988 5.9 8.12988 6.77 8.12988 8.55V18.35C8.12988 20.13 7.22988 21 5.37988 21ZM4.37988 7.4C3.28988 7.4 3.12988 7.66 3.12988 8.55V18.35C3.12988 19.24 3.28988 19.5 4.37988 19.5H5.37988C6.46988 19.5 6.62988 19.24 6.62988 18.35V8.55C6.62988 7.66 6.46988 7.4 5.37988 7.4H4.37988Z" fill="#171515"/>
</g>
</g>
</svg>
