<svg width="64" height="64" viewBox="0 0 64 64" fill="none" xmlns="http://www.w3.org/2000/svg">
<g filter="url(#filter0_d_526_42522)">
<rect x="10" y="10" width="44" height="44" rx="22" fill="#00B709" shape-rendering="crispEdges"/>
<path d="M35 42.25H29C26.3424 42.25 24.5649 41.6803 23.4423 40.5577C22.3197 39.4351 21.75 37.6576 21.75 35V29C21.75 26.3424 22.3197 24.5649 23.4423 23.4423C24.5649 22.3197 26.3424 21.75 29 21.75H35C37.6576 21.75 39.4351 22.3197 40.5577 23.4423C41.6803 24.5649 42.25 26.3424 42.25 29V35C42.25 37.6576 41.6803 39.4351 40.5577 40.5577C39.4351 41.6803 37.6576 42.25 35 42.25ZM29 22.25C26.6597 22.25 24.9243 22.6611 23.7927 23.7927C22.6611 24.9243 22.25 26.6597 22.25 29V35C22.25 37.3403 22.6611 39.0757 23.7927 40.2073C24.9243 41.3389 26.6597 41.75 29 41.75H35C37.3403 41.75 39.0757 41.3389 40.2073 40.2073C41.3389 39.0757 41.75 37.3403 41.75 35V29C41.75 26.6597 41.3389 24.9243 40.2073 23.7927C39.0757 22.6611 37.3403 22.25 35 22.25H29Z" fill="#FAFAFA" stroke="#FAFAFA"/>
<path d="M28.5698 36.02C28.3798 36.02 28.1898 35.95 28.0398 35.8C27.7498 35.51 27.7498 35.03 28.0398 34.74L34.5898 28.19C34.8798 27.9 35.3598 27.9 35.6498 28.19C35.9398 28.48 35.9398 28.96 35.6498 29.25L29.0998 35.8C28.9498 35.95 28.7598 36.02 28.5698 36.02Z" fill="#FAFAFA"/>
<path d="M28.98 31.11C27.89 31.11 27 30.22 27 29.13C27 28.04 27.89 27.15 28.98 27.15C30.07 27.15 30.96 28.04 30.96 29.13C30.96 30.22 30.07 31.11 28.98 31.11ZM28.98 28.66C28.72 28.66 28.5 28.87 28.5 29.14C28.5 29.41 28.71 29.62 28.98 29.62C29.25 29.62 29.46 29.41 29.46 29.14C29.46 28.87 29.24 28.66 28.98 28.66Z" fill="#FAFAFA"/>
<path d="M35.52 36.84C34.43 36.84 33.54 35.95 33.54 34.86C33.54 33.77 34.43 32.88 35.52 32.88C36.61 32.88 37.5 33.77 37.5 34.86C37.5 35.95 36.61 36.84 35.52 36.84ZM35.52 34.39C35.26 34.39 35.04 34.6 35.04 34.87C35.04 35.14 35.25 35.35 35.52 35.35C35.79 35.35 36 35.14 36 34.87C36 34.6 35.79 34.39 35.52 34.39Z" fill="#FAFAFA"/>
<rect x="10.5" y="10.5" width="43" height="43" rx="21.5" stroke="#00B709" shape-rendering="crispEdges"/>
</g>
<defs>
<filter id="filter0_d_526_42522" x="0" y="0" width="64" height="64" filterUnits="userSpaceOnUse" color-interpolation-filters="sRGB">
<feFlood flood-opacity="0" result="BackgroundImageFix"/>
<feColorMatrix in="SourceAlpha" type="matrix" values="0 0 0 0 0 0 0 0 0 0 0 0 0 0 0 0 0 0 127 0" result="hardAlpha"/>
<feOffset/>
<feGaussianBlur stdDeviation="5"/>
<feComposite in2="hardAlpha" operator="out"/>
<feColorMatrix type="matrix" values="0 0 0 0 0 0 0 0 0 0 0 0 0 0 0 0 0 0 0.25 0"/>
<feBlend mode="normal" in2="BackgroundImageFix" result="effect1_dropShadow_526_42522"/>
<feBlend mode="normal" in="SourceGraphic" in2="effect1_dropShadow_526_42522" result="shape"/>
</filter>
</defs>
</svg>
