<svg width="24" height="24" viewBox="0 0 24 24" fill="none" xmlns="http://www.w3.org/2000/svg">
<g id="vuesax/outline/ranking">
<g id="ranking">
<path id="Vector" d="M14.8564 21.7107L14.8554 21.7101L12.6154 20.3801L12.6136 20.379C12.4166 20.2631 12.1744 20.235 12.0001 20.235C11.8259 20.235 11.5837 20.2631 11.3866 20.379L11.3849 20.3801L9.14556 21.7097C9.14553 21.7097 9.1455 21.7097 9.14546 21.7097C8.50064 22.0912 8.025 22.1783 7.69999 22.1654C7.37594 22.1525 7.16026 22.0385 7.03672 21.9475C6.91155 21.8553 6.73555 21.6808 6.62365 21.3738C6.51167 21.0665 6.44968 20.5874 6.61728 19.8627L6.61748 19.8618L7.14747 17.5518L7.14749 17.5518L7.14823 17.5485C7.19493 17.3383 7.15463 17.1128 7.1091 16.9558C7.06258 16.7953 6.97692 16.591 6.83653 16.4398L6.83023 16.433L6.82369 16.4265L4.96367 14.5665C4.5219 14.1247 4.34527 13.7398 4.28093 13.4475C4.21613 13.1531 4.25735 12.9164 4.30658 12.7616C4.35535 12.6083 4.45852 12.3928 4.68179 12.1908C4.90349 11.9903 5.27002 11.7791 5.884 11.6729C5.8844 11.6729 5.8848 11.6728 5.88519 11.6727L8.27267 11.2732L8.27267 11.2732L8.27703 11.2724C8.47352 11.2377 8.65758 11.128 8.78099 11.0362C8.89982 10.9479 9.06126 10.8029 9.14957 10.6192L10.4666 7.985C10.4667 7.9848 10.4668 7.9846 10.4669 7.9844C10.7554 7.41217 11.0717 7.11642 11.3327 6.96055C11.5954 6.8037 11.8331 6.77002 11.9901 6.77002C12.1502 6.77002 12.3876 6.8025 12.6486 6.95746C12.9083 7.11158 13.2243 7.40636 13.5129 7.98362L14.8329 10.6236L14.8328 10.6237L14.839 10.6353C14.9302 10.8063 15.0866 10.9468 15.2068 11.0362C15.3253 11.1244 15.5063 11.2355 15.698 11.2715L15.698 11.2715L15.7076 11.2732L18.0976 11.6732L18.0985 11.6733C18.711 11.7747 19.0764 11.9853 19.2976 12.1863C19.5207 12.389 19.6245 12.607 19.6737 12.7616C19.7229 12.9164 19.7641 13.1531 19.6993 13.4475C19.635 13.7398 19.4583 14.1247 19.0166 14.5665L19.3701 14.92L19.0166 14.5665L17.1566 16.4265C17.003 16.58 16.9159 16.7962 16.8708 16.9533C16.8255 17.111 16.7854 17.3388 16.832 17.5485L16.832 17.5485L16.8329 17.5523L17.3628 19.852C17.3629 19.8521 17.3629 19.8521 17.3629 19.8522C17.3629 19.8522 17.3629 19.8523 17.3629 19.8523C17.5311 20.5842 17.4706 21.0634 17.3601 21.3683C17.25 21.6719 17.076 21.8423 16.9485 21.9338L16.9274 21.949L16.9079 21.9663C16.8227 22.042 16.6021 22.17 16.2401 22.17C15.9168 22.17 15.4644 22.0737 14.8564 21.7107ZM15.1048 21.2799L15.105 21.28C15.4351 21.4758 15.7209 21.5877 15.9559 21.6378C16.0724 21.6626 16.1871 21.6746 16.2943 21.6684C16.3724 21.664 16.539 21.6461 16.6824 21.5306C16.809 21.4302 16.8696 21.2958 16.8989 21.2161C16.9355 21.1166 16.9581 21.0049 16.9692 20.8869C16.9915 20.6496 16.9714 20.3477 16.8877 19.9792L16.8874 19.9777L16.3574 17.6777L16.3568 17.6755C16.3004 17.4356 16.3141 17.1345 16.4016 16.8331C16.489 16.5318 16.639 16.2682 16.8137 16.0936L18.6737 14.2336L18.3201 13.88L18.6737 14.2336C18.8902 14.0171 19.0424 13.8039 19.1342 13.6016C19.2182 13.4164 19.2797 13.1758 19.208 12.943C19.135 12.7056 18.9438 12.5416 18.7655 12.4385C18.5721 12.3266 18.3229 12.2434 18.0195 12.1964L15.6348 11.7972C15.6345 11.7972 15.6342 11.7971 15.6339 11.7971C15.1487 11.7133 14.6051 11.3119 14.3873 10.8764L13.0673 8.23641L13.0674 8.23641L13.0653 8.23247C12.9329 7.97333 12.7838 7.76106 12.6267 7.6057C12.4914 7.47199 12.2689 7.30002 11.9901 7.30002C11.7175 7.30002 11.4966 7.46217 11.3557 7.59993C11.196 7.75597 11.0458 7.97066 10.9129 8.23642L11.3466 8.45325L10.9129 8.23642L9.59293 10.8764C9.37519 11.3119 8.83153 11.7133 8.3464 11.7971C8.34607 11.7971 8.34575 11.7972 8.34543 11.7972L5.9576 12.1969L5.9576 12.1969L5.95487 12.1973C5.65539 12.2492 5.40906 12.3317 5.21799 12.4404C5.04358 12.5395 4.84682 12.7006 4.77224 12.943C4.70061 13.1758 4.76203 13.4164 4.84606 13.6016C4.93783 13.8039 5.09009 14.0171 5.30658 14.2336L7.16657 16.0936L7.52012 15.74L7.16657 16.0936C7.34038 16.2674 7.49078 16.5328 7.57854 16.8364C7.6664 17.1403 7.67948 17.4407 7.62377 17.6739L7.62278 17.6782L7.09278 19.9882L7.09277 19.9882L7.0922 19.9908C7.00883 20.3631 6.98873 20.6672 7.01107 20.9044C7.02216 21.0221 7.04478 21.1349 7.0828 21.2356C7.1109 21.3101 7.17714 21.4602 7.32677 21.562C7.46041 21.655 7.60774 21.6737 7.69222 21.6784C7.79959 21.6845 7.91442 21.6728 8.03189 21.6478C8.26777 21.5975 8.55158 21.4852 8.87689 21.2891C8.87742 21.2887 8.87794 21.2884 8.87846 21.2881L11.1094 19.9635C11.3698 19.8193 11.683 19.74 12.0001 19.74C12.3315 19.74 12.6385 19.8155 12.8649 19.9499L15.1048 21.2799Z" fill="#ED0C57" stroke="#ED0C57"/>
<path id="Vector_2" d="M6 9.25C5.86614 9.25 5.75 9.13386 5.75 9V2C5.75 1.86614 5.86614 1.75 6 1.75C6.13386 1.75 6.25 1.86614 6.25 2V9C6.25 9.13386 6.13386 9.25 6 9.25Z" fill="#ED0C57" stroke="#ED0C57"/>
<path id="Vector_3" d="M18 9.75C17.59 9.75 17.25 9.41 17.25 9V2C17.25 1.59 17.59 1.25 18 1.25C18.41 1.25 18.75 1.59 18.75 2V9C18.75 9.41 18.41 9.75 18 9.75Z" fill="#ED0C57"/>
<path id="Vector_4" d="M12 4.75C11.59 4.75 11.25 4.41 11.25 4V2C11.25 1.59 11.59 1.25 12 1.25C12.41 1.25 12.75 1.59 12.75 2V4C12.75 4.41 12.41 4.75 12 4.75Z" fill="#ED0C57"/>
</g>
</g>
</svg>
