<svg width="25" height="24" viewBox="0 0 25 24" fill="none" xmlns="http://www.w3.org/2000/svg">
<g id="vuesax/outline/heart">
<g id="heart">
<path id="Vector" d="M12.25 21.65C11.94 21.65 11.64 21.61 11.39 21.52C7.57 20.21 1.5 15.56 1.5 8.69001C1.5 5.19001 4.33 2.35001 7.81 2.35001C9.5 2.35001 11.08 3.01001 12.25 4.19001C13.42 3.01001 15 2.35001 16.69 2.35001C20.17 2.35001 23 5.20001 23 8.69001C23 15.57 16.93 20.21 13.11 21.52C12.86 21.61 12.56 21.65 12.25 21.65ZM7.81 3.85001C5.16 3.85001 3 6.02001 3 8.69001C3 15.52 9.57 19.32 11.88 20.11C12.06 20.17 12.45 20.17 12.63 20.11C14.93 19.32 21.51 15.53 21.51 8.69001C21.51 6.02001 19.35 3.85001 16.7 3.85001C15.18 3.85001 13.77 4.56001 12.86 5.79001C12.58 6.17001 11.94 6.17001 11.66 5.79001C10.73 4.55001 9.33 3.85001 7.81 3.85001Z" fill="#171515"/>
</g>
</g>
</svg>
