<svg width="25" height="24" viewBox="0 0 25 24" fill="none" xmlns="http://www.w3.org/2000/svg">
<path d="M18.04 22.75H6.46C3.72 22.75 1.5 20.52 1.5 17.78V10.37C1.5 9.01 2.34 7.3 3.42 6.46L8.81 2.26C10.43 1 13.02 0.940005 14.7 2.12L20.88 6.45C22.07 7.28 23 9.06001 23 10.51V17.79C23 20.52 20.78 22.75 18.04 22.75ZM9.73 3.44L4.34 7.64C3.63 8.2 3 9.47001 3 10.37V17.78C3 19.69 4.55 21.25 6.46 21.25H18.04C19.95 21.25 21.5 19.7 21.5 17.79V10.51C21.5 9.55 20.81 8.22 20.02 7.68L13.84 3.35C12.7 2.55 10.82 2.59 9.73 3.44Z" fill="#171515"/>
<path d="M12.25 18.75C11.84 18.75 11.5 18.41 11.5 18V15C11.5 14.59 11.84 14.25 12.25 14.25C12.66 14.25 13 14.59 13 15V18C13 18.41 12.66 18.75 12.25 18.75Z" fill="#171515"/>
</svg>
