<svg width="89" height="24" viewBox="0 0 89 24" fill="none" xmlns="http://www.w3.org/2000/svg">
<path d="M6.33 18.478H17.584V23H0.482V0.559999H6.33V18.478ZM29.5887 0.219999C31.8553 0.219999 33.8047 0.684666 35.4367 1.614C37.0913 2.52067 38.3607 3.83533 39.2447 5.558C40.1287 7.28067 40.5707 9.35467 40.5707 11.78C40.5707 14.2053 40.1287 16.2793 39.2447 18.002C38.3607 19.7247 37.0913 21.0507 35.4367 21.98C33.8047 22.8867 31.8553 23.34 29.5887 23.34C27.322 23.34 25.3613 22.8867 23.7067 21.98C22.052 21.0507 20.7827 19.7247 19.8987 18.002C19.0147 16.2793 18.5727 14.2053 18.5727 11.78C18.5727 9.35467 19.0147 7.28067 19.8987 5.558C20.7827 3.83533 22.052 2.52067 23.7067 1.614C25.3613 0.684666 27.322 0.219999 29.5887 0.219999ZM29.5887 4.81C28.5007 4.81 27.5827 5.07067 26.8347 5.592C26.0867 6.11333 25.52 6.89533 25.1347 7.938C24.7493 8.958 24.5567 10.2387 24.5567 11.78C24.5567 13.2987 24.7493 14.5793 25.1347 15.622C25.52 16.6647 26.0867 17.4467 26.8347 17.968C27.5827 18.4893 28.5007 18.75 29.5887 18.75C30.6767 18.75 31.5833 18.4893 32.3087 17.968C33.0567 17.4467 33.6233 16.6647 34.0087 15.622C34.394 14.5793 34.5867 13.2987 34.5867 11.78C34.5867 10.2387 34.394 8.958 34.0087 7.938C33.6233 6.89533 33.0567 6.11333 32.3087 5.592C31.5833 5.07067 30.6767 4.81 29.5887 4.81ZM53.195 23.34C51.2003 23.34 49.421 22.898 47.857 22.014C46.3157 21.13 45.1143 19.8267 44.253 18.104C43.3917 16.3813 42.961 14.2847 42.961 11.814C42.961 9.38867 43.4143 7.31467 44.321 5.592C45.2277 3.86933 46.5197 2.54333 48.197 1.614C49.897 0.684666 51.8917 0.219999 54.181 0.219999C56.7197 0.219999 58.771 0.684666 60.335 1.614C61.899 2.52067 63.1117 3.97133 63.973 5.966L58.567 8.108C58.2723 6.952 57.751 6.11333 57.003 5.592C56.255 5.07067 55.3257 4.81 54.215 4.81C53.1043 4.81 52.1523 5.082 51.359 5.626C50.5657 6.14733 49.965 6.92933 49.557 7.972C49.149 8.992 48.945 10.2613 48.945 11.78C48.945 13.3667 49.149 14.6927 49.557 15.758C49.9877 16.8233 50.611 17.6167 51.427 18.138C52.2657 18.6367 53.297 18.886 54.521 18.886C55.1783 18.886 55.779 18.8067 56.323 18.648C56.867 18.4893 57.343 18.2627 57.751 17.968C58.159 17.6507 58.4763 17.2653 58.703 16.812C58.9297 16.336 59.043 15.7807 59.043 15.146V14.806H53.909V10.896H64.007V23H60.029L59.587 17.73L60.539 18.546C60.063 20.0873 59.2017 21.2773 57.955 22.116C56.731 22.932 55.1443 23.34 53.195 23.34ZM77.8673 0.219999C80.134 0.219999 82.0833 0.684666 83.7153 1.614C85.37 2.52067 86.6393 3.83533 87.5233 5.558C88.4073 7.28067 88.8493 9.35467 88.8493 11.78C88.8493 14.2053 88.4073 16.2793 87.5233 18.002C86.6393 19.7247 85.37 21.0507 83.7153 21.98C82.0833 22.8867 80.134 23.34 77.8673 23.34C75.6007 23.34 73.64 22.8867 71.9853 21.98C70.3307 21.0507 69.0613 19.7247 68.1773 18.002C67.2933 16.2793 66.8513 14.2053 66.8513 11.78C66.8513 9.35467 67.2933 7.28067 68.1773 5.558C69.0613 3.83533 70.3307 2.52067 71.9853 1.614C73.64 0.684666 75.6007 0.219999 77.8673 0.219999ZM77.8673 4.81C76.7793 4.81 75.8613 5.07067 75.1133 5.592C74.3653 6.11333 73.7987 6.89533 73.4133 7.938C73.028 8.958 72.8353 10.2387 72.8353 11.78C72.8353 13.2987 73.028 14.5793 73.4133 15.622C73.7987 16.6647 74.3653 17.4467 75.1133 17.968C75.8613 18.4893 76.7793 18.75 77.8673 18.75C78.9553 18.75 79.862 18.4893 80.5873 17.968C81.3353 17.4467 81.902 16.6647 82.2873 15.622C82.6727 14.5793 82.8653 13.2987 82.8653 11.78C82.8653 10.2387 82.6727 8.958 82.2873 7.938C81.902 6.89533 81.3353 6.11333 80.5873 5.592C79.862 5.07067 78.9553 4.81 77.8673 4.81Z" fill="#00B709"/>
</svg>
