<svg width="52" height="53" viewBox="0 0 52 53" fill="none" xmlns="http://www.w3.org/2000/svg">
<path d="M45.8386 40.1503L42.2985 40.987C41.5047 41.1801 40.8825 41.7809 40.7108 42.5747L39.9599 45.7286C39.5522 47.445 37.3638 47.9814 36.2267 46.6297L29.8116 39.2491C29.2966 38.6484 29.5756 37.7044 30.3479 37.5113C34.1455 36.5887 37.5569 34.4646 40.0672 31.4394C40.4748 30.946 41.2043 30.8816 41.6548 31.3322L46.4179 36.0952C48.0485 37.7258 47.4692 39.7641 45.8386 40.1503Z" fill="#00B709"/>
<path d="M6.03918 40.1503L9.57929 40.987C10.3731 41.1801 10.9953 41.7809 11.167 42.5747L11.9179 45.7286C12.3256 47.445 14.514 47.9814 15.6511 46.6297L22.0662 39.2491C22.5812 38.6484 22.3022 37.7044 21.5299 37.5113C17.7323 36.5887 14.3209 34.4646 11.8106 31.4394C11.403 30.946 10.6735 30.8816 10.223 31.3322L5.45989 36.0952C3.82929 37.7258 4.40859 39.7641 6.03918 40.1503Z" fill="#00B709"/>
<path d="M25.9925 4.81354C17.6894 4.81354 10.9739 11.529 10.9739 19.8322C10.9739 22.9432 11.8965 25.7967 13.4841 28.1783C15.8013 31.6111 19.4702 34.0356 23.7397 34.6578C24.4692 34.7865 25.2202 34.8509 25.9925 34.8509C26.7649 34.8509 27.5159 34.7865 28.2453 34.6578C32.5149 34.0356 36.1838 31.6111 38.5009 28.1783C40.0886 25.7967 41.0112 22.9432 41.0112 19.8322C41.0112 11.529 34.2957 4.81354 25.9925 4.81354ZM32.5578 19.3602L30.7771 21.141C30.4767 21.4413 30.305 22.0206 30.4123 22.4497L30.9272 24.6596C31.3349 26.3975 30.4123 27.0841 28.8675 26.1615L26.722 24.8956C26.3358 24.6596 25.6922 24.6596 25.306 24.8956L23.1605 26.1615C21.6157 27.0626 20.6931 26.3975 21.1008 24.6596L21.6157 22.4497C21.7015 22.0421 21.5513 21.4413 21.2509 21.141L19.4272 19.3602C18.3759 18.3089 18.7192 17.2576 20.1782 17.0216L22.4739 16.6354C22.8601 16.571 23.3106 16.2277 23.4823 15.8844L24.7481 13.3527C25.4347 11.9796 26.5504 11.9796 27.2369 13.3527L28.5028 15.8844C28.6744 16.2277 29.125 16.571 29.5327 16.6354L31.8284 17.0216C33.2659 17.2576 33.6091 18.3089 32.5578 19.3602Z" fill="#00B709"/>
</svg>
