<svg width="25" height="24" viewBox="0 0 25 24" fill="none" xmlns="http://www.w3.org/2000/svg">
<g id="vuesax/outline/menu">
<g id="menu">
<path id="Vector" d="M17.1731 8H3.32692C3.01154 8 2.75 7.54667 2.75 7C2.75 6.45333 3.01154 6 3.32692 6H17.1731C17.4885 6 17.75 6.45333 17.75 7C17.75 7.54667 17.4885 8 17.1731 8Z" fill="#171515"/>
<path id="Vector_2" d="M21.9808 13H3.51923C3.09872 13 2.75 12.5467 2.75 12C2.75 11.4533 3.09872 11 3.51923 11H21.9808C22.4013 11 22.75 11.4533 22.75 12C22.75 12.5467 22.4013 13 21.9808 13Z" fill="#171515"/>
<path id="Vector_3" d="M21.9808 18H3.51923C3.09872 18 2.75 17.5467 2.75 17C2.75 16.4533 3.09872 16 3.51923 16H21.9808C22.4013 16 22.75 16.4533 22.75 17C22.75 17.5467 22.4013 18 21.9808 18Z" fill="#171515"/>
</g>
</g>
</svg>
