<svg width="52" height="53" viewBox="0 0 52 53" fill="none" xmlns="http://www.w3.org/2000/svg">
<g id="vuesax/bold/moneys">
<g id="moneys">
<path id="Vector" d="M41.5774 15.2166C40.6549 10.5608 37.2006 8.52252 32.3946 8.52252H13.5569C7.89273 8.52252 4.11661 11.3546 4.11661 17.9628V29.0123C4.11661 33.7753 6.06903 36.5645 9.28732 37.766C9.75933 37.9376 10.2743 38.0878 10.8106 38.1736C11.6688 38.3667 12.5914 38.4526 13.5569 38.4526H32.416C38.0802 38.4526 41.8563 35.6205 41.8563 29.0123V17.9628C41.8563 16.9544 41.7705 16.0533 41.5774 15.2166ZM12.3125 26.7166C12.3125 27.5962 11.583 28.3257 10.7034 28.3257C9.8237 28.3257 9.09422 27.5962 9.09422 26.7166V20.28C9.09422 19.4003 9.8237 18.6708 10.7034 18.6708C11.583 18.6708 12.3125 19.4003 12.3125 20.28V26.7166ZM22.9757 29.1624C19.8433 29.1624 17.3116 26.6307 17.3116 23.4983C17.3116 20.3658 19.8433 17.8341 22.9757 17.8341C26.1082 17.8341 28.6399 20.3658 28.6399 23.4983C28.6399 26.6307 26.1082 29.1624 22.9757 29.1624ZM36.8358 26.7166C36.8358 27.5962 36.1063 28.3257 35.2267 28.3257C34.347 28.3257 33.6175 27.5962 33.6175 26.7166V20.28C33.6175 19.4003 34.347 18.6708 35.2267 18.6708C36.1063 18.6708 36.8358 19.4003 36.8358 20.28V26.7166Z" fill="#00B709"/>
<path id="Vector_2" d="M48.2929 24.3994V35.4488C48.2929 42.057 44.5168 44.9106 38.8312 44.9106H19.9935C18.3843 44.9106 16.9468 44.6746 15.7024 44.2025C14.694 43.8378 13.8144 43.3014 13.1063 42.6149C12.7202 42.2501 13.0205 41.6708 13.5569 41.6708H32.3946C40.333 41.6708 45.0532 36.9507 45.0532 29.0337V17.9628C45.0532 17.4479 45.6325 17.1261 45.9972 17.5123C47.4562 19.057 48.2929 21.3098 48.2929 24.3994Z" fill="#00B709"/>
</g>
</g>
</svg>
