<svg width="24" height="24" viewBox="0 0 24 24" fill="none" xmlns="http://www.w3.org/2000/svg">
<path d="M15 22.25H9C6.3424 22.25 4.56492 21.6803 3.4423 20.5577C2.31968 19.4351 1.75 17.6576 1.75 15V9C1.75 6.3424 2.31968 4.56492 3.4423 3.4423C4.56492 2.31968 6.3424 1.75 9 1.75H15C17.6576 1.75 19.4351 2.31968 20.5577 3.4423C21.6803 4.56492 22.25 6.3424 22.25 9V15C22.25 17.6576 21.6803 19.4351 20.5577 20.5577C19.4351 21.6803 17.6576 22.25 15 22.25ZM9 2.25C6.65972 2.25 4.92432 2.66107 3.7927 3.7927C2.66107 4.92432 2.25 6.65972 2.25 9V15C2.25 17.3403 2.66107 19.0757 3.7927 20.2073C4.92432 21.3389 6.65972 21.75 9 21.75H15C17.3403 21.75 19.0757 21.3389 20.2073 20.2073C21.3389 19.0757 21.75 17.3403 21.75 15V9C21.75 6.65972 21.3389 4.92432 20.2073 3.7927C19.0757 2.66107 17.3403 2.25 15 2.25H9Z" fill="#292D32" stroke="#171515"/>
<path d="M8.56976 16.02C8.37976 16.02 8.18977 15.95 8.03977 15.8C7.74977 15.51 7.74977 15.03 8.03977 14.74L14.5898 8.19003C14.8798 7.90003 15.3598 7.90003 15.6498 8.19003C15.9398 8.48003 15.9398 8.96003 15.6498 9.25003L9.09976 15.8C8.94976 15.95 8.75976 16.02 8.56976 16.02Z" fill="#292D32"/>
<path d="M8.98001 11.11C7.89001 11.11 7 10.22 7 9.13004C7 8.04004 7.89001 7.15002 8.98001 7.15002C10.07 7.15002 10.96 8.04004 10.96 9.13004C10.96 10.22 10.07 11.11 8.98001 11.11ZM8.98001 8.66003C8.72001 8.66003 8.5 8.87005 8.5 9.14005C8.5 9.41005 8.71001 9.62003 8.98001 9.62003C9.25001 9.62003 9.45999 9.41005 9.45999 9.14005C9.45999 8.87005 9.24001 8.66003 8.98001 8.66003Z" fill="#292D32"/>
<path d="M15.52 16.84C14.43 16.84 13.54 15.95 13.54 14.86C13.54 13.77 14.43 12.88 15.52 12.88C16.61 12.88 17.5 13.77 17.5 14.86C17.5 15.95 16.61 16.84 15.52 16.84ZM15.52 14.39C15.26 14.39 15.04 14.6 15.04 14.87C15.04 15.14 15.25 15.35 15.52 15.35C15.79 15.35 16 15.14 16 14.87C16 14.6 15.79 14.39 15.52 14.39Z" fill="#292D32"/>
</svg>
