<svg width="52" height="52" viewBox="0 0 52 52" fill="none" xmlns="http://www.w3.org/2000/svg">
<g id="vuesax/bold/message-question">
<g id="message-question">
<path id="Vector" d="M36.8582 5.63159H15.403C8.96641 5.63159 4.67537 9.92264 4.67537 16.3592V29.2323C4.67537 35.6689 8.96641 39.9599 15.403 39.9599V44.5299C15.403 46.2463 17.3125 47.2762 18.7285 46.3107L28.2761 39.9599H36.8582C43.2948 39.9599 47.5858 35.6689 47.5858 29.2323V16.3592C47.5858 9.92264 43.2948 5.63159 36.8582 5.63159ZM26.1306 31.7426C25.2295 31.7426 24.5215 31.0131 24.5215 30.1335C24.5215 29.2538 25.2295 28.5243 26.1306 28.5243C27.0317 28.5243 27.7397 29.2538 27.7397 30.1335C27.7397 31.0131 27.0317 31.7426 26.1306 31.7426ZM28.834 22.8387C27.9972 23.3965 27.7397 23.7613 27.7397 24.362V24.8126C27.7397 25.6922 27.0103 26.4217 26.1306 26.4217C25.2509 26.4217 24.5215 25.6922 24.5215 24.8126V24.362C24.5215 21.8732 26.3451 20.6502 27.0317 20.1782C27.8256 19.6419 28.083 19.2771 28.083 18.7193C28.083 17.6465 27.2034 16.7669 26.1306 16.7669C25.0578 16.7669 24.1782 17.6465 24.1782 18.7193C24.1782 19.5989 23.4487 20.3284 22.569 20.3284C21.6894 20.3284 20.9599 19.5989 20.9599 18.7193C20.9599 15.8657 23.277 13.5486 26.1306 13.5486C28.9841 13.5486 31.3013 15.8657 31.3013 18.7193C31.3013 21.1652 29.4991 22.3881 28.834 22.8387Z" fill="#00B709"/>
</g>
</g>
</svg>
