<svg width="52" height="53" viewBox="0 0 52 53" fill="none" xmlns="http://www.w3.org/2000/svg">
<g id="vuesax/bold/shield-tick">
<path id="Vector" d="M40.2556 9.8097L28.4552 5.38992C27.2323 4.93936 25.2369 4.93936 24.014 5.38992L12.2136 9.8097C9.93936 10.6679 8.09421 13.3284 8.09421 15.7528V33.1315C8.09421 34.8694 9.23133 37.1651 10.6259 38.195L22.4263 47.0131C24.5075 48.5793 27.9188 48.5793 30 47.0131L41.8004 38.195C43.195 37.1437 44.3321 34.8694 44.3321 33.1315V15.7528C44.3535 13.3284 42.5084 10.6679 40.2556 9.8097ZM33.6903 21.8246L24.4645 31.0504C24.1427 31.3722 23.7351 31.5224 23.3274 31.5224C22.9198 31.5224 22.5121 31.3722 22.1903 31.0504L18.7575 27.5746C18.1353 26.9524 18.1353 25.9226 18.7575 25.3004C19.3797 24.6782 20.4095 24.6782 21.0317 25.3004L23.3489 27.6175L31.4375 19.5289C32.0597 18.9067 33.0895 18.9067 33.7117 19.5289C34.3339 20.1511 34.3339 21.2024 33.6903 21.8246Z" fill="#00B709"/>
</g>
</svg>
