<svg width="53" height="53" viewBox="0 0 53 53" fill="none" xmlns="http://www.w3.org/2000/svg">
<g id="vuesax/bold/shopping-cart">
<g id="shopping-cart">
<path id="Vector" d="M35.6035 48.7967C37.6772 48.7967 39.3582 47.1157 39.3582 45.042C39.3582 42.9684 37.6772 41.2874 35.6035 41.2874C33.5299 41.2874 31.8489 42.9684 31.8489 45.042C31.8489 47.1157 33.5299 48.7967 35.6035 48.7967Z" fill="#00B709"/>
<path id="Vector_2" d="M18.4394 48.7967C20.513 48.7967 22.194 47.1157 22.194 45.042C22.194 42.9684 20.513 41.2874 18.4394 41.2874C16.3657 41.2874 14.6847 42.9684 14.6847 45.042C14.6847 47.1157 16.3657 48.7967 18.4394 48.7967Z" fill="#00B709"/>
<path id="Vector_3" d="M11.1231 8.97586L10.694 14.2324C10.6082 15.2408 11.4021 16.0775 12.4105 16.0775H45.2584C46.1595 16.0775 46.9104 15.391 46.9748 14.4899C47.2537 10.6923 44.3573 7.60273 40.5597 7.60273H14.1912C13.9767 6.6587 13.5476 5.75758 12.8825 5.00665C11.8097 3.86952 10.3078 3.20441 8.76307 3.20441H5.02986C4.15019 3.20441 3.42072 3.93388 3.42072 4.81355C3.42072 5.69321 4.15019 6.42269 5.02986 6.42269H8.76307C9.42818 6.42269 10.0504 6.70161 10.5009 7.17362C10.9515 7.66709 11.1661 8.31075 11.1231 8.97586Z" fill="#00B709"/>
<path id="Vector_4" d="M44.7435 19.2958H11.8312C10.93 19.2958 10.2006 19.9823 10.1147 20.862L9.34235 30.195C9.04198 33.8639 11.917 36.9963 15.5858 36.9963H39.444C42.6623 36.9963 45.4944 34.3573 45.7304 31.1391L46.4384 21.1195C46.5243 20.1325 45.7519 19.2958 44.7435 19.2958Z" fill="#00B709"/>
</g>
</g>
</svg>
