<svg width="25" height="24" viewBox="0 0 25 24" fill="none" xmlns="http://www.w3.org/2000/svg">
<g id="vuesax/outline/user">
<g id="user">
<path id="Vector" d="M12.75 12.75C9.58 12.75 7 10.17 7 7C7 3.83 9.58 1.25 12.75 1.25C15.92 1.25 18.5 3.83 18.5 7C18.5 10.17 15.92 12.75 12.75 12.75ZM12.75 2.75C10.41 2.75 8.5 4.66 8.5 7C8.5 9.34 10.41 11.25 12.75 11.25C15.09 11.25 17 9.34 17 7C17 4.66 15.09 2.75 12.75 2.75Z" fill="#171515"/>
<path id="Vector_2" d="M21.3401 22.75C20.9301 22.75 20.5901 22.41 20.5901 22C20.5901 18.55 17.0702 15.75 12.7502 15.75C8.43015 15.75 4.91016 18.55 4.91016 22C4.91016 22.41 4.57016 22.75 4.16016 22.75C3.75016 22.75 3.41016 22.41 3.41016 22C3.41016 17.73 7.60015 14.25 12.7502 14.25C17.9002 14.25 22.0901 17.73 22.0901 22C22.0901 22.41 21.7501 22.75 21.3401 22.75Z" fill="#171515"/>
</g>
</g>
</svg>
